<?xml version="1.0" encoding="utf-8"?>
<!-- Generator: Adobe Illustrator 23.0.0, SVG Export Plug-In . SVG Version: 6.00 Build 0)  -->
<svg version="1.1" id="Capa_1" xmlns="http://www.w3.org/2000/svg" xmlns:xlink="http://www.w3.org/1999/xlink" x="0px" y="0px"
	 viewBox="0 0 512 512" style="enable-background:new 0 0 512 512;" xml:space="preserve">
<style type="text/css">
	.st0{fill:#F68832;}
	.st1{fill:#262626;}
</style>
<path class="st0" d="M443.3,134.6l53.3-65.4c4-4.9,4.5-11.7,1.3-17.1s-9.4-8.2-15.6-7.1C440,52.8,406.9,42.6,375,32.9
	c-35.8-11-72.8-22.3-116.4-3.9v180c1.7-0.2,3.5-0.7,5.1-1.5c36.5-18.3,65.7-9.4,102.5,1.9c25.2,7.7,52.9,16.2,85.9,16.2
	c11.2,0,23-1,35.5-3.3c5.3-1,9.6-4.7,11.4-9.7s0.8-10.6-2.6-14.7L443.3,134.6z"/>
<ellipse class="st0" cx="256" cy="389.7" rx="88" ry="19.2"/>
<path class="st0" d="M256,370.5c-48.6,0-88,8.6-88,19.2s39.4,19.2,88,19.2V370.5z"/>
<path class="st1" d="M271,389.9V21.2c0-8.3-6.7-15-15-15s-15,6.7-15,15v368.7L271,389.9L271,389.9z"/>
</svg>
