<svg id="Calque_1" data-name="Calque 1" xmlns="http://www.w3.org/2000/svg" xmlns:xlink="http://www.w3.org/1999/xlink" viewBox="0 0 8475.1229 1939.9561"><defs><style>.cls-1{opacity:0.29;fill:url(#linear-gradient);}.cls-2{fill:#ccc;}.cls-3{fill:url(#linear-gradient-2);}.cls-4{fill:#fff;opacity:0.4;}.cls-5{fill:#b3b3b3;}</style><linearGradient id="linear-gradient" x1="840.9807" y1="1689.4402" x2="2864.1306" y2="1689.4402" gradientTransform="matrix(1, -0.0048, 0.0061, 1.2664, 7.6347, -202.7738)" gradientUnits="userSpaceOnUse"><stop offset="0.014" stop-color="#7b7d80"/><stop offset="1" stop-color="#131314"/></linearGradient><linearGradient id="linear-gradient-2" x1="1071.6661" y1="987.7472" x2="1923.1056" y2="1834.43" gradientUnits="userSpaceOnUse"><stop offset="0" stop-color="#f8bb75"/><stop offset="1" stop-color="#f58732"/></linearGradient></defs><title>Sans titre - 5</title><ellipse class="cls-1" cx="1870.433" cy="1927.9212" rx="1011.5866" ry="38.8549" transform="translate(-361.5109 -0.0484) rotate(-0.9107)"/><path class="cls-2" d="M3072.6,1914.4832H2428.548S1721.8,1406.1169,1174.641,363.09l410.37-333.0676S2451.3463,1598.9455,3072.6,1914.4832Z" transform="translate(-331.1035 -30.0219)"/><path class="cls-3" d="M2132.17,1940.778H1556.5127s-473.065-495.2189-815.04-1165.7365L1049.25,494.5635S1790.1953,1717.2721,2132.17,1940.778Z" transform="translate(-331.1035 -30.0219)"/><path class="cls-2" d="M1294.3321,1927.6306H798.4688s-324.8759-403.1871-467.3653-731.8722L621.7819,915.2805S1094.8469,1826.8338,1294.3321,1927.6306Z" transform="translate(-331.1035 -30.0219)"/><path class="cls-4" d="M2428.548,1914.4832s-352.1072-278.53-610.4881-596.0157c0,0,605.4218,83.7539,757.4106,163.6122,0,0,272.3131,331.12,497.13,432.4035Z" transform="translate(-331.1035 -30.0219)"/><path class="cls-4" d="M2132.17,1940.778H1562.2122s-287.512-319.4332-518.6615-644.2228c0,0,473.0649-.4869,541.46,8.7649C1585.0106,1305.32,1992.847,1873.58,2132.17,1940.778Z" transform="translate(-331.1035 -30.0219)"/><path class="cls-4" d="M1294.3321,1927.6306H798.4688s-275.48-368.1273-370.4725-534.6611c0,0,275.48-68.6587,421.7687-61.3546C849.765,1331.6149,1161.342,1875.041,1294.3321,1927.6306Z" transform="translate(-331.1035 -30.0219)"/><path class="cls-5" d="M2823.6575,1237.01c-62.0536,0-149.0923-49.9765-149.0923-199.0384,0-142.9212,58.0284-211.32,149.0923-211.32h153.1174V1164.24h94.2932v72.77Zm83.817-342.844h-81.3989c-64.4717,0-79.7842,89.44-79.7842,143.8056,0,52.6131,21.7559,126.2679,79.7842,126.2679h81.3989ZM2798.6723,747.7408V666.1931h68.5045v81.5477Zm107.991,0V666.1931h68.5046v81.5477Z" transform="translate(-331.1035 -30.0219)"/><path class="cls-5" d="M3046.9247,1237.01v-72.77h135.3944v72.77Z" transform="translate(-331.1035 -30.0219)"/><path class="cls-5" d="M3162.17,1237.01v-72.77h135.3944v72.77Z" transform="translate(-331.1035 -30.0219)"/><path class="cls-5" d="M3277.4158,1237.01v-72.77H3412.81v72.77Z" transform="translate(-331.1035 -30.0219)"/><path class="cls-5" d="M3369.2909,1394.8325v-81.531h68.5045v81.531Zm27.4033-157.8224v-72.77c64.4718,0,93.4821-38.58,93.4821-104.3416V826.6519h69.3081v236.75C3559.4844,1171.248,3498.2343,1237.01,3396.6942,1237.01Zm81.3913,157.8224v-81.531h69.308v81.531Z" transform="translate(-331.1035 -30.0219)"/><path class="cls-5" d="M3593.3463,1394.8325v-66.63c26.5922-1.7521,55.61-23.6784,67.6934-57.0016,13.7055-34.191,11.2874-78.0268,11.2874-101.7052V826.6519h69.308V1216.836C3741.6351,1310.665,3687.64,1398.3534,3593.3463,1394.8325Z" transform="translate(-331.1035 -30.0219)"/><path class="cls-5" d="M3819.0088,1063.4022V666.1931h69.308l-.8035,393.7049c0,65.7621,33.0432,104.3416,96.7038,104.3416v72.77C3882.677,1237.01,3819.0088,1171.248,3819.0088,1063.4022Z" transform="translate(-331.1035 -30.0219)"/><path class="cls-5" d="M4255.8171,1237.01a263.6022,263.6022,0,0,1-91.0639-16.6532c-29.01,10.5126-60.4389,16.6532-91.8751,16.6532H3964.0835v-72.77H4084.969c-48.3557-47.3567-87.8423-113.9865-78.9731-190.2779,11.28-82.4154,62.857-147.31,158.7573-147.31,95.0967,0,146.6741,64.8944,157.9537,147.31,9.6727,76.2914-30.6173,142.9212-78.973,190.2779h120.8854v72.77ZM4164.7532,890.662c-45.9376,0-81.3913,33.3232-88.6458,82.4153-9.6726,72.7872,32.2321,131.5242,88.6458,166.6,55.61-35.0754,97.5149-93.8124,87.8422-166.6C4245.3409,923.9852,4209.076,890.662,4164.7532,890.662Zm-87.0388-142.9212V666.1931h67.7011v81.5477Zm107.9909,0V666.1931H4254.21v81.5477Z" transform="translate(-331.1035 -30.0219)"/><path class="cls-5" d="M4684.59,1237.01a225.4719,225.4719,0,0,1-78.9807-14.9011c-25.7887,9.6448-53.9956,14.9011-78.9731,14.9011H4340.468v-72.77H4527.44L4399.3,1036.22c0-116.623,75.759-214.824,206.3095-214.824,129.7469,0,207.1129,98.201,207.1129,214.824L4684.59,1164.24h186.1606v72.77Zm-77.3661-348.1H4605.61c-78.9731-1.7521-131.3616,63.1256-131.3616,132.3919C4507.2912,1056.3771,4605.61,1153.71,4605.61,1153.71l131.3615-132.4086C4736.9711,953.7876,4685.3938,891.5463,4607.2242,888.91Z" transform="translate(-331.1035 -30.0219)"/><path class="cls-5" d="M4845.8116,1237.01v-72.77c64.4717,0,97.5149-38.58,97.5149-104.3416V666.1931h69.3081v397.2091C5012.6346,1171.248,4947.3594,1237.01,4845.8116,1237.01Z" transform="translate(-331.1035 -30.0219)"/><path class="cls-5" d="M5090.8194,1237.01V666.1931h69.3081V1237.01Z" transform="translate(-331.1035 -30.0219)"/><path class="cls-5" d="M5531.6529,1237.01c-97.5149,0-154.7321-63.1256-154.7321-202.5426,0-134.1607,59.6353-207.8156,154.7321-207.8156,95.9,0,154.7321,73.6549,154.7321,210.4354C5686.385,1173.8845,5629.9713,1237.01,5531.6529,1237.01Zm-86.2276-488.4016v-81.531h67.6934v81.531Zm86.2276,142.9378c-55.6026,0-83.0059,41.1994-83.0059,142.9212,0,97.3166,27.4033,129.7721,83.0059,129.7721,55.61,0,84.6205-32.4555,84.6205-128.02C5616.2734,932.7457,5588.87,891.5463,5531.6529,891.5463Zm21.7635-142.9378v-81.531H5621.11v81.531Z" transform="translate(-331.1035 -30.0219)"/><path class="cls-5" d="M5764.5851,1237.01v-72.77h170.8481v-153.45c0-96.4489-14.509-123.6314-62.857-123.6314l11.28-68.3986c49.1592,0,87.0387,24.546,107.18,66.6465,11.295,22.7939,12.902,38.5795,12.902,85.9195V1237.01Z" transform="translate(-331.1035 -30.0219)"/><path class="cls-5" d="M6082.13,1063.4022V666.1931h69.3157l-.8112,393.7049c0,65.7621,33.0432,104.3416,96.7114,104.3416v72.77C6145.7985,1237.01,6082.13,1171.248,6082.13,1063.4022Z" transform="translate(-331.1035 -30.0219)"/><path class="cls-5" d="M6203.85,1394.8325v-81.531h68.5046v81.531Zm27.3957-157.8224v-72.77c64.4794,0,93.4974-38.58,93.4974-104.3416V826.6519h69.3v236.75C6394.0433,1171.248,6332.793,1237.01,6231.2455,1237.01Zm81.4065,157.8224v-81.531h69.3v81.531Z" transform="translate(-331.1035 -30.0219)"/><path class="cls-5" d="M6667.25,1237.01c-36.2725,0-66.8976-9.6448-91.0639-26.2981v6.124c0,93.829-53.9956,181.5174-148.2888,177.9965v-66.63c26.6-1.7521,55.6026-23.6784,67.6934-57.0016,13.6978-34.191,11.28-78.0268,11.28-101.7052V826.6519h69.3157v258.66c0,50.8609,36.2572,78.9278,91.0639,78.9278h8.05v72.77Z" transform="translate(-331.1035 -30.0219)"/><path class="cls-5" d="M6655.1747,1237.01v-72.77c64.4794,0,97.5226-38.58,97.5226-104.3416V666.1931h69.3v397.2091C6821.9977,1171.248,6756.7225,1237.01,6655.1747,1237.01Z" transform="translate(-331.1035 -30.0219)"/><path class="cls-5" d="M6900.1749,1237.01V666.1931h69.3157V1237.01Z" transform="translate(-331.1035 -30.0219)"/><path class="cls-5" d="M7335.3838,1237.01c-62.0612,0-149.1-49.9765-149.1-199.0384,0-142.9212,58.0207-211.32,149.1-211.32h153.11V1164.24h94.2932v72.77Zm83.8094-342.844h-81.4066c-64.464,0-79.7842,89.44-79.7842,143.8056,0,52.6131,21.7635,126.2679,79.7842,126.2679h81.4066ZM7310.391,747.7408V666.1931h68.5045v81.5477Zm107.991,0V666.1931h68.5046v81.5477Z" transform="translate(-331.1035 -30.0219)"/><path class="cls-5" d="M7553.8147,1237.01v-72.77h325.58V1033.5831c.8112-64.01-31.4209-95.5644-95.0891-95.5644H7573.9712V809.1143c0-85.92,58.8319-142.0368,149.0846-142.0368h142.6413v72.77H7723.0558c-50.7662,0-83.0135,29.819-83.0135,71.0184v52.613h144.2635c100.7366,0,158.7573,59.6214,158.7573,166.5995V1237.01Z" transform="translate(-331.1035 -30.0219)"/><path class="cls-5" d="M8215.49,1237.01c-36.2725,0-66.8976-9.6448-91.0639-26.2981v6.124c0,93.829-53.9956,181.5174-148.2888,177.9965v-66.63c26.6-1.7521,55.6026-23.6784,67.6934-57.0016,13.6978-34.191,11.28-78.0268,11.28-101.7052V826.6519h69.3157v258.66c0,50.8609,36.2572,78.9278,91.0639,78.9278h8.05v72.77Z" transform="translate(-331.1035 -30.0219)"/><path class="cls-5" d="M8681.3082,1237.01h-475.476v-72.77h132.1727V831.0405h66.8823V1164.24h131.3615V826.6519h69.3157V1164.24H8678.89c43.527,0,58.036-18.422,58.036-104.3416V826.6519h69.3v270.0735C8806.2264,1188.7857,8758.6742,1237.01,8681.3082,1237.01Zm-200.662-488.4016v-81.531h69.3v81.531Zm54.8067-117.4908V549.57h68.4892v81.5476Zm53.98,117.4908v-81.531h69.3157v81.531Z" transform="translate(-331.1035 -30.0219)"/></svg>