<?xml version="1.0" encoding="utf-8"?>
<!-- Generator: Adobe Illustrator 23.0.0, SVG Export Plug-In . SVG Version: 6.00 Build 0)  -->
<svg version="1.1" id="Capa_1" xmlns="http://www.w3.org/2000/svg" xmlns:xlink="http://www.w3.org/1999/xlink" x="0px" y="0px"
	 viewBox="0 0 512 512" style="enable-background:new 0 0 512 512;" xml:space="preserve">
<style type="text/css">
	.st0{fill:#D12C39;}
	.st1{fill:#F9F4F3;}
	.st2{fill:#F0E6E1;}
	.st3{fill:#F68832;}
	.st4{fill:#262626;}
</style>
<g>
	<path class="st0" d="M439.7,160.5C439.7,160.5,439.7,160.5,439.7,160.5c-5-3-10.2-5.9-15.5-8.7
		C429.5,154.6,434.7,157.5,439.7,160.5z"/>
</g>
<path class="st1" d="M508.2,291c-4.6-5.1-114.5-125-252.2-125S8.4,285.9,3.8,291c-5.1,5.7-5.1,14.3,0,20
	c4.6,5.1,114.5,125,252.2,125s247.6-119.9,252.2-125C513.3,305.3,513.3,296.7,508.2,291z"/>
<path class="st2" d="M508.2,311c5.1-5.7,5.1-14.3,0-20c-4.6-5.1-114.5-125-252.2-125v270C393.7,436,503.6,316.1,508.2,311z"/>
<circle class="st3" cx="256" cy="301" r="135"/>
<path class="st1" d="M311.6,260.4c-5.9-5.9-15.4-5.9-21.2,0L256,294.8l-15,15l-19.4-19.4c-5.9-5.9-15.4-5.9-21.2,0
	c-5.9,5.9-5.9,15.4,0,21.2l30,30c2.9,2.9,6.8,4.4,10.6,4.4s7.7-1.5,10.6-4.4l4.4-4.4l55.6-55.6C317.5,275.7,317.5,266.3,311.6,260.4
	L311.6,260.4z"/>
<path class="st1" d="M311.6,260.4c-5.9-5.9-15.4-5.9-21.2,0L256,294.8v42.4l55.6-55.6C317.5,275.7,317.5,266.3,311.6,260.4
	L311.6,260.4z"/>
<path class="st0" d="M495.7,234.1c-2.7-0.2-5.4-1.2-7.8-3C490.3,232.9,493,233.8,495.7,234.1z"/>
<path class="st4" d="M508.5,228.7c-2.6,3.1-6.3,4.9-10,5.3c-0.3,0-0.5,0.1-0.8,0.1c-0.7,0-1.3,0-2,0c-2.7-0.2-5.4-1.2-7.8-3
	c-0.2-0.1-0.4-0.3-0.5-0.4C435.1,187.5,351.7,136,256,136S76.9,187.5,24.6,230.7c-6.4,5.3-15.8,4.4-21.1-2c-5.3-6.4-4.4-15.8,2-21.1
	C61.6,161.2,151.4,106,256,106c33,0,64.5,5.5,94,14.5c7.1-8.1,11-18.5,11-29.5c0-8.3,6.7-15,15-15s15,6.7,15,15
	c0,14.3-4,28.1-11.4,39.9c8.1,3.2,16.1,6.7,23.8,10.4c3.3,1.6,6.7,3.2,9.9,4.9c5-7.3,7.7-16,7.7-25.1c0-8.3,6.7-15,15-15
	s15,6.7,15,15c0,14-4,27.8-11.3,39.5c-5-3-10.2-5.9-15.5-8.7c5.3,2.9,10.4,5.8,15.4,8.7c11,6.5,21.4,13.2,31.2,20c0,0,0,0,0,0
	c7-8.1,11.1-18.6,11.1-29.5c0-8.3,6.7-15,15-15s15,6.7,15,14.9c0,17.5-6.1,34.2-17,47.4c0,0,0,0,0,0c4,3.1,7.8,6.2,11.5,9.2
	C512.9,212.8,513.8,222.3,508.5,228.7z"/>
<path class="st0" d="M413.3,146.1c-3.3-1.6-6.6-3.3-9.9-4.9C406.8,142.8,410.1,144.5,413.3,146.1z"/>
<path class="st0" d="M508.6,228.7c-2.6,3.1-6.3,5-10.1,5.3C502.2,233.6,505.9,231.8,508.6,228.7c5.2-6.4,4.3-15.9-2.1-21.1
	c-3.7-3-7.5-6.1-11.5-9.2c0,0,0,0,0,0c4,3.1,7.8,6.2,11.5,9.3C513,212.9,513.9,222.3,508.6,228.7z"/>
</svg>
